<svg  xmlns="http://www.w3.org/2000/svg" xmlns:xlink="http://www.w3.org/1999/xlink" width="945" height="300" viewBox="0 0 969 324"><path transform="translate(0 100)" d="M52,3L8,3L8,-81L52,-81L52,3ZM47.6,-1L47.6,-77L12.4,-77L12.4,-1L47.6,-1Z"></path><path transform="translate(60 100)" d="M52,3L8,3L8,-81L52,-81L52,3ZM47.6,-1L47.6,-77L12.4,-77L12.4,-1L47.6,-1Z"></path><path transform="translate(120 100)" d="M52,3L8,3L8,-81L52,-81L52,3ZM47.6,-1L47.6,-77L12.4,-77L12.4,-1L47.6,-1Z"></path><path transform="translate(180 100)" d="M52,3L8,3L8,-81L52,-81L52,3ZM47.6,-1L47.6,-77L12.4,-77L12.4,-1L47.6,-1Z"></path><path transform="translate(240 100)" d="M52,3L8,3L8,-81L52,-81L52,3ZM47.6,-1L47.6,-77L12.4,-77L12.4,-1L47.6,-1Z"></path><path transform="translate(300 100)" d="M52,3L8,3L8,-81L52,-81L52,3ZM47.6,-1L47.6,-77L12.4,-77L12.4,-1L47.6,-1Z"></path><path transform="translate(0 200)" d="M25.9,-0L25.9,-65.8L2.3,-65.8L2.3,-74L58.1,-74L58.1,-65.8L34.6,-65.8L34.6,-0L25.9,-0Z"></path><path transform="translate(60 200)" d="M7.2,-0L7.2,-74L15.5,-74L15.5,-45.5L16,-45.5Q18.4,-49.5 23.05,-51.95Q27.7,-54.4 32.4,-54.4Q41.2,-54.4 46.2,-48.95Q51.2,-43.5 51.2,-33.6L51.2,-0L42.9,-0L42.9,-32.4Q42.9,-38.8 39.3,-42.8Q35.7,-46.8 30.3,-46.8Q25.9,-46.8 22.55,-44.85Q19.2,-42.9 17.35,-39.4Q15.5,-35.9 15.5,-31.4L15.5,-0L7.2,-0Z"></path><path transform="translate(118 200)" d="M29.8,1.3Q22,1.3 16.35,-2.05Q10.7,-5.4 7.65,-11.65Q4.6,-17.9 4.6,-26.4Q4.6,-35 7.45,-41.3Q10.3,-47.6 15.75,-51Q21.2,-54.4 28.6,-54.4Q35.5,-54.4 40.6,-51.55Q45.7,-48.7 48.45,-43.4Q51.2,-38.1 51.2,-31Q51.2,-27.5 50.6,-24.2L11.6,-24.2L11.9,-31.7L42.7,-31.7Q42.7,-36.4 41.15,-39.75Q39.6,-43.1 36.45,-44.95Q33.3,-46.8 28.6,-46.8Q23.8,-46.8 20.35,-44.6Q16.9,-42.4 15.05,-37.8Q13.2,-33.2 13.2,-26.2Q13.2,-20.1 15.2,-15.65Q17.2,-11.2 20.95,-8.75Q24.7,-6.3 29.8,-6.3Q33.9,-6.3 37.5,-8.3Q41.1,-10.3 43.7,-14.2L50.2,-9.7Q46.8,-4.4 41.7,-1.55Q36.6,1.3 29.8,1.3Z"></path><path transform="translate(174 200)" d=""></path><path transform="translate(203 200)" d="M14.9,-28.5L14.9,-36.6L33,-36.6Q41.2,-36.6 45.7,-40.4Q50.2,-44.2 50.2,-51.2Q50.2,-58.2 45.7,-62Q41.2,-65.8 33,-65.8L16.5,-65.8L16.5,-0L7.9,-0L7.9,-74L33.8,-74Q45.8,-74 52.45,-68Q59.1,-62 59.1,-51.2Q59.1,-40.4 52.7,-34.45Q46.3,-28.5 34.6,-28.5L14.9,-28.5Z"></path><path transform="translate(265 200)" d="M7.2,-0L7.2,-53L15.5,-53L15.5,-42.9L16,-42.9Q19.3,-48.3 24.4,-51.35Q29.5,-54.4 35.7,-54.4L36.4,-54.4L36.4,-45.4L35.5,-45.4Q29.4,-45.4 24.9,-43.4Q20.4,-41.4 17.95,-37.95Q15.5,-34.5 15.5,-30.5L15.5,-0L7.2,-0Z"></path><path transform="translate(302 200)" d="M28.8,1.4Q21.5,1.4 16,-2Q10.5,-5.4 7.55,-11.7Q4.6,-18 4.6,-26.5Q4.6,-35 7.55,-41.3Q10.5,-47.6 16,-51Q21.5,-54.4 28.8,-54.4Q36.1,-54.4 41.55,-51Q47,-47.6 50,-41.3Q53,-35 53,-26.5Q53,-18 50,-11.7Q47,-5.4 41.55,-2Q36.1,1.4 28.8,1.4ZM28.8,-6.4Q33.6,-6.4 37.15,-8.85Q40.7,-11.3 42.6,-15.85Q44.5,-20.4 44.5,-26.5Q44.5,-32.6 42.6,-37.15Q40.7,-41.7 37.15,-44.15Q33.6,-46.6 28.8,-46.6Q24,-46.6 20.45,-44.15Q16.9,-41.7 15,-37.15Q13.1,-32.6 13.1,-26.5Q13.1,-20.4 15,-15.85Q16.9,-11.3 20.45,-8.85Q24,-6.4 28.8,-6.4Z"></path><path transform="translate(360 200)" d="M1.9,22.4Q-1.8,22.4 -5.3,21.3L-5.3,13.6Q-3.3,14.6 0.1,14.6Q4,14.6 6.2,12.05Q8.4,9.5 8.4,4.9L8.4,-53L16.7,-53L16.7,6.4Q16.7,14.1 12.9,18.25Q9.1,22.4 1.9,22.4ZM12.4,-64.1Q9.8,-64.1 8.35,-65.6Q6.9,-67.1 6.9,-69.7Q6.9,-72.3 8.4,-73.85Q9.9,-75.4 12.4,-75.4Q15,-75.4 16.6,-73.85Q18.2,-72.3 18.2,-69.7Q18.2,-67.1 16.6,-65.6Q15,-64.1 12.4,-64.1Z"></path><path transform="translate(385 200)" d="M29.8,1.3Q22,1.3 16.35,-2.05Q10.7,-5.4 7.65,-11.65Q4.6,-17.9 4.6,-26.4Q4.6,-35 7.45,-41.3Q10.3,-47.6 15.75,-51Q21.2,-54.4 28.6,-54.4Q35.5,-54.4 40.6,-51.55Q45.7,-48.7 48.45,-43.4Q51.2,-38.1 51.2,-31Q51.2,-27.5 50.6,-24.2L11.6,-24.2L11.9,-31.7L42.7,-31.7Q42.7,-36.4 41.15,-39.75Q39.6,-43.1 36.45,-44.95Q33.3,-46.8 28.6,-46.8Q23.8,-46.8 20.35,-44.6Q16.9,-42.4 15.05,-37.8Q13.2,-33.2 13.2,-26.2Q13.2,-20.1 15.2,-15.65Q17.2,-11.2 20.95,-8.75Q24.7,-6.3 29.8,-6.3Q33.9,-6.3 37.5,-8.3Q41.1,-10.3 43.7,-14.2L50.2,-9.7Q46.8,-4.4 41.7,-1.55Q36.6,1.3 29.8,1.3Z"></path><path transform="translate(441 200)" d="M29.6,1.4Q22,1.4 16.35,-2.05Q10.7,-5.5 7.65,-11.85Q4.6,-18.2 4.6,-26.6Q4.6,-34.9 7.65,-41.2Q10.7,-47.5 16.35,-50.9Q22,-54.3 29.6,-54.3Q35.2,-54.3 40.55,-51.3Q45.9,-48.3 49.1,-43.3L42.6,-38.7Q40.2,-42.3 36.65,-44.4Q33.1,-46.5 29,-46.5Q24.3,-46.5 20.7,-44.05Q17.1,-41.6 15.1,-37.05Q13.1,-32.5 13.1,-26.6Q13.1,-20.6 15.05,-16Q17,-11.4 20.6,-8.9Q24.2,-6.4 28.9,-6.4Q33,-6.4 36.65,-8.5Q40.3,-10.6 42.6,-14.2L49.1,-9.6Q45.9,-4.6 40.55,-1.6Q35.2,1.4 29.6,1.4Z"></path><path transform="translate(494 200)" d="M25.6,2.1Q18.2,2.1 14.25,-2.1Q10.3,-6.3 10.3,-14.2L10.3,-69.8L18.6,-69.8L18.6,-14.8Q18.6,-10.4 20.9,-8Q23.2,-5.6 27.3,-5.6Q29.7,-5.6 32.7,-6.6L32.7,1Q30,2.1 25.6,2.1ZM2,-45.2L2,-53L33.9,-53L33.9,-45.2L2,-45.2Z"></path><path transform="translate(530 200)" d=""></path><path transform="translate(559 200)" d="M16.5,-0L7.9,-0L7.9,-74L52.8,-74L52.8,-65.8L16.5,-65.8L16.5,-41.2L50.2,-41.2L50.2,-33L16.5,-33L16.5,-0Z"></path><path transform="translate(613 200)" d="M28.8,1.4Q21.5,1.4 16,-2Q10.5,-5.4 7.55,-11.7Q4.6,-18 4.6,-26.5Q4.6,-35 7.55,-41.3Q10.5,-47.6 16,-51Q21.5,-54.4 28.8,-54.4Q36.1,-54.4 41.55,-51Q47,-47.6 50,-41.3Q53,-35 53,-26.5Q53,-18 50,-11.7Q47,-5.4 41.55,-2Q36.1,1.4 28.8,1.4ZM28.8,-6.4Q33.6,-6.4 37.15,-8.85Q40.7,-11.3 42.6,-15.85Q44.5,-20.4 44.5,-26.5Q44.5,-32.6 42.6,-37.15Q40.7,-41.7 37.15,-44.15Q33.6,-46.6 28.8,-46.6Q24,-46.6 20.45,-44.15Q16.9,-41.7 15,-37.15Q13.1,-32.6 13.1,-26.5Q13.1,-20.4 15,-15.85Q16.9,-11.3 20.45,-8.85Q24,-6.4 28.8,-6.4Z"></path><path transform="translate(671 200)" d="M7.2,-0L7.2,-53L15.5,-53L15.5,-42.9L16,-42.9Q19.3,-48.3 24.4,-51.35Q29.5,-54.4 35.7,-54.4L36.4,-54.4L36.4,-45.4L35.5,-45.4Q29.4,-45.4 24.9,-43.4Q20.4,-41.4 17.95,-37.95Q15.5,-34.5 15.5,-30.5L15.5,-0L7.2,-0Z"></path><path transform="translate(709 200)" d=""></path><path transform="translate(738 200)" d="M1.3,-74L10.1,-74L26.2,-15.7L26.8,-15.7L43.4,-74L52.4,-74L69.1,-15.7L69.6,-15.7L85.7,-74L94.5,-74L73.9,-0L65.7,-0L48.3,-60L47.5,-60L30.1,-0L21.9,-0L1.3,-74Z"></path><path transform="translate(829 200)" d="M29.8,1.3Q22,1.3 16.35,-2.05Q10.7,-5.4 7.65,-11.65Q4.6,-17.9 4.6,-26.4Q4.6,-35 7.45,-41.3Q10.3,-47.6 15.75,-51Q21.2,-54.4 28.6,-54.4Q35.5,-54.4 40.6,-51.55Q45.7,-48.7 48.45,-43.4Q51.2,-38.1 51.2,-31Q51.2,-27.5 50.6,-24.2L11.6,-24.2L11.9,-31.7L42.7,-31.7Q42.7,-36.4 41.15,-39.75Q39.6,-43.1 36.45,-44.95Q33.3,-46.8 28.6,-46.8Q23.8,-46.8 20.35,-44.6Q16.9,-42.4 15.05,-37.8Q13.2,-33.2 13.2,-26.2Q13.2,-20.1 15.2,-15.65Q17.2,-11.2 20.95,-8.75Q24.7,-6.3 29.8,-6.3Q33.9,-6.3 37.5,-8.3Q41.1,-10.3 43.7,-14.2L50.2,-9.7Q46.8,-4.4 41.7,-1.55Q36.6,1.3 29.8,1.3Z"></path><path transform="translate(885 200)" d="M7.2,-0L7.2,-74L15.5,-74L15.5,-45.5L16,-45.5Q19,-49.6 23.35,-51.95Q27.7,-54.3 32.7,-54.3Q39.1,-54.3 44.25,-50.85Q49.4,-47.4 52.3,-41.3Q55.2,-35.2 55.2,-27.5Q55.2,-19.2 52.3,-12.65Q49.4,-6.1 44.25,-2.4Q39.1,1.3 32.7,1.3Q27.4,1.3 23.1,-1Q18.8,-3.3 16,-7.6L15.5,-7.6L15.5,-0L7.2,-0ZM15.1,-26.5Q15.1,-20.8 17.05,-16.3Q19,-11.8 22.55,-9.3Q26.1,-6.8 30.5,-6.8Q35.1,-6.8 38.8,-9.3Q42.5,-11.8 44.6,-16.3Q46.7,-20.8 46.7,-26.5Q46.7,-32.2 44.65,-36.7Q42.6,-41.2 39,-43.7Q35.4,-46.2 30.8,-46.2Q26.3,-46.2 22.7,-43.7Q19.1,-41.2 17.1,-36.7Q15.1,-32.2 15.1,-26.5Z"></path></svg>