<svg  xmlns="http://www.w3.org/2000/svg" xmlns:xlink="http://www.w3.org/1999/xlink" width="945" height="300" viewBox="0 0 969 324"><path transform="translate(0 100)" d="M88,-65.2L88,-24L80.2,-24L80.2,-57.4L19.8,-57.4L19.8,-24L12,-24L12,-65.2L88,-65.2ZM84,-31.7L84,-24L16.1,-24L16.1,-31.7L84,-31.7ZM53.7,-84.8L53.7,6.8L46,6.8L46,-84.8L53.7,-84.8Z"></path><path transform="translate(100 100)" d="M51.2,-85Q51.6,-84.2 54.8,-76.1Q55.6,-74.1 56.4,-72.15Q57.2,-70.2 57.9,-68.4L49.1,-67.6Q48,-71.3 44.3,-80.2Q44,-81.1 43.7,-81.85Q43.4,-82.6 43.1,-83.3L51.2,-85ZM92.7,-69.1L92.7,-61.7L7.1,-61.7L7.1,-69.1L92.7,-69.1ZM6.3,-1.4Q26.6,-8.7 38.95,-17.05Q51.3,-25.4 58.35,-36.8Q65.4,-48.2 69.1,-65.3L77.4,-65Q73.2,-46 65.35,-33.15Q57.5,-20.3 44.3,-10.9Q31.1,-1.5 10,6.8L6.3,-1.4ZM30,-65.6Q33.9,-48.4 41.4,-36.7Q48.9,-25 61.5,-16.75Q74.1,-8.5 93.7,-2.1L90.4,6.2Q69.4,-1.4 56.1,-10.65Q42.8,-19.9 34.75,-32.95Q26.7,-46 21.9,-65.4L30,-65.6Z"></path><path transform="translate(200 100)" d="M88.6,-7.6Q88.6,-2.4 87.45,0.25Q86.3,2.9 83.3,3.95Q80.3,5 74.4,5L63.4,5L61.9,-2.3L72.4,-2.3Q76.2,-2.3 78,-2.85Q79.8,-3.4 80.45,-4.95Q81.1,-6.5 81.1,-9.8L81.1,-71.9L18.9,-71.9L18.9,5.8L11.3,5.8L11.3,-79.1L88.6,-79.1L88.6,-7.6ZM27.9,-63.5Q31.7,-56.4 38.25,-43.6Q44.8,-30.8 50,-20.3L44,-16.5Q39.7,-26 33.1,-39.3Q26.5,-52.6 22.3,-60.2L27.9,-63.5ZM20.2,-12.6Q27.2,-22.8 33.7,-36.45Q40.2,-50.1 45.1,-65L51.2,-62.8Q46,-47.2 39.4,-33Q32.8,-18.8 25.8,-8.3L20.2,-12.6ZM55.7,-59.8Q58.9,-54.1 64.55,-43.05Q70.2,-32 75.3,-21.9Q77.1,-18.1 79.1,-14.2L73.4,-10.6Q66.9,-24 60.55,-36.6Q54.2,-49.2 50.3,-56L55.7,-59.8ZM46.8,-11.7Q54.4,-23.3 61.05,-37.15Q67.7,-51 71.9,-64.6L77.9,-62.4Q73.5,-47.9 66.9,-33.75Q60.3,-19.6 52.5,-7.6L46.8,-11.7Z"></path><path transform="translate(300 100)" d="M43.5,-84L51.5,-86L58.2,-70.4L50.5,-68.1L43.5,-84ZM9.8,-72.7L90,-72.7L90,-52L82.3,-52L82.3,-65.4L17.3,-65.4L17.3,-52L9.8,-52L9.8,-72.7ZM21.8,-53.9L77.7,-53.9L77.7,-46.7L55.2,-31.6L55.2,-7.1Q55.2,-1.9 54.2,0.7Q53.2,3.3 50.65,4.25Q48.1,5.2 42.9,5.2L29.4,5.2L27.9,-2.1L40.2,-2.1Q43.4,-2.1 44.85,-2.65Q46.3,-3.2 46.8,-4.65Q47.3,-6.1 47.3,-9.3L47.3,-34.5L64.9,-46.6L21.8,-46.6L21.8,-53.9ZM6.2,-29.3L93.6,-29.3L93.6,-21.9L6.2,-21.9L6.2,-29.3Z"></path><path transform="translate(400 100)" d="M6,-52.8L26.1,-52.8L26.1,-10.6L40.9,-22.1L43.6,-14.4L19.3,3.8L15.3,-2Q17.2,-3.6 17.75,-4.75Q18.3,-5.9 18.3,-7.9L18.3,-45L6,-45L6,-52.8ZM18.4,-84.3Q21.1,-81.1 24.4,-77Q27.7,-72.9 30.9,-68.8L34.1,-64.7L27.8,-59.7Q27.2,-60.4 26.6,-61.25Q26,-62.1 25.3,-63Q16.2,-75.1 12.5,-79.5L18.4,-84.3ZM35.4,-51.2L94,-51.2L94,-43.5L35.4,-43.5L35.4,-51.2ZM61.2,-84.6L68.8,-84.6L68.8,6.7L61.2,6.7L61.2,-84.6Z"></path><path transform="translate(500 100)" d="M61.6,-75.4L68.5,-75.4L68.5,-16L61.6,-16L61.6,-75.4ZM74.5,-2.6Q77.5,-2.6 78.9,-3.1Q80.3,-3.6 80.8,-4.95Q81.3,-6.3 81.3,-9.1L81.3,-84.4L88.4,-84.4L88.4,-6.4Q88.4,-2 87.4,0.4Q86.4,2.8 83.85,3.85Q81.3,4.9 76.4,4.9L65.9,4.9L64.4,-2.6L74.5,-2.6ZM5.5,-9.9Q18.7,-16.9 28.4,-26.7Q38.1,-36.5 44.9,-49.7L50.7,-45.9Q42.9,-31.4 33.1,-21.25Q23.3,-11.1 9.5,-3.4L5.5,-9.9ZM25.5,-84.5L25.6,-80.3Q25.8,-77 25.95,-72.8Q26.1,-68.6 26.3,-63.9Q27.5,-41.3 30.05,-28.2Q32.6,-15.1 37,-8.4Q38.9,-5.4 40.4,-4Q41.9,-2.6 43.1,-2.6Q44.7,-2.6 45.9,-4.15Q47.1,-5.7 47.9,-9.8Q49.5,-17.3 49.9,-21.7L56.5,-19Q54.3,-8 53.7,-5.8Q52.1,0.4 49.5,3.15Q46.9,5.9 43.1,5.9Q40.1,5.9 37.05,3.45Q34,1 30.7,-4.4Q25.9,-12.6 23.1,-26.85Q20.3,-41.1 19.1,-64.6L18.6,-75.6L18.3,-84.5L25.5,-84.5ZM35.8,-82.2Q42,-76.6 48.3,-69.7L43.8,-65.1Q38.6,-71 31.7,-77.9L35.8,-82.2ZM6.2,-55.7L54.4,-64.2L55.4,-57L7.1,-48.5L6.2,-55.7Z"></path><path transform="translate(0 200)" d="M25.9,-0L25.9,-65.8L2.3,-65.8L2.3,-74L58.1,-74L58.1,-65.8L34.6,-65.8L34.6,-0L25.9,-0Z"></path><path transform="translate(60 200)" d="M7.2,-0L7.2,-74L15.5,-74L15.5,-45.5L16,-45.5Q18.4,-49.5 23.05,-51.95Q27.7,-54.4 32.4,-54.4Q41.2,-54.4 46.2,-48.95Q51.2,-43.5 51.2,-33.6L51.2,-0L42.9,-0L42.9,-32.4Q42.9,-38.8 39.3,-42.8Q35.7,-46.8 30.3,-46.8Q25.9,-46.8 22.55,-44.85Q19.2,-42.9 17.35,-39.4Q15.5,-35.9 15.5,-31.4L15.5,-0L7.2,-0Z"></path><path transform="translate(118 200)" d="M29.8,1.3Q22,1.3 16.35,-2.05Q10.7,-5.4 7.65,-11.65Q4.6,-17.9 4.6,-26.4Q4.6,-35 7.45,-41.3Q10.3,-47.6 15.75,-51Q21.2,-54.4 28.6,-54.4Q35.5,-54.4 40.6,-51.55Q45.7,-48.7 48.45,-43.4Q51.2,-38.1 51.2,-31Q51.2,-27.5 50.6,-24.2L11.6,-24.2L11.9,-31.7L42.7,-31.7Q42.7,-36.4 41.15,-39.75Q39.6,-43.1 36.45,-44.95Q33.3,-46.8 28.6,-46.8Q23.8,-46.8 20.35,-44.6Q16.9,-42.4 15.05,-37.8Q13.2,-33.2 13.2,-26.2Q13.2,-20.1 15.2,-15.65Q17.2,-11.2 20.95,-8.75Q24.7,-6.3 29.8,-6.3Q33.9,-6.3 37.5,-8.3Q41.1,-10.3 43.7,-14.2L50.2,-9.7Q46.8,-4.4 41.7,-1.55Q36.6,1.3 29.8,1.3Z"></path><path transform="translate(174 200)" d=""></path><path transform="translate(203 200)" d="M14.9,-28.5L14.9,-36.6L33,-36.6Q41.2,-36.6 45.7,-40.4Q50.2,-44.2 50.2,-51.2Q50.2,-58.2 45.7,-62Q41.2,-65.8 33,-65.8L16.5,-65.8L16.5,-0L7.9,-0L7.9,-74L33.8,-74Q45.8,-74 52.45,-68Q59.1,-62 59.1,-51.2Q59.1,-40.4 52.7,-34.45Q46.3,-28.5 34.6,-28.5L14.9,-28.5Z"></path><path transform="translate(265 200)" d="M7.2,-0L7.2,-53L15.5,-53L15.5,-42.9L16,-42.9Q19.3,-48.3 24.4,-51.35Q29.5,-54.4 35.7,-54.4L36.4,-54.4L36.4,-45.4L35.5,-45.4Q29.4,-45.4 24.9,-43.4Q20.4,-41.4 17.95,-37.95Q15.5,-34.5 15.5,-30.5L15.5,-0L7.2,-0Z"></path><path transform="translate(302 200)" d="M28.8,1.4Q21.5,1.4 16,-2Q10.5,-5.4 7.55,-11.7Q4.6,-18 4.6,-26.5Q4.6,-35 7.55,-41.3Q10.5,-47.6 16,-51Q21.5,-54.4 28.8,-54.4Q36.1,-54.4 41.55,-51Q47,-47.6 50,-41.3Q53,-35 53,-26.5Q53,-18 50,-11.7Q47,-5.4 41.55,-2Q36.1,1.4 28.8,1.4ZM28.8,-6.4Q33.6,-6.4 37.15,-8.85Q40.7,-11.3 42.6,-15.85Q44.5,-20.4 44.5,-26.5Q44.5,-32.6 42.6,-37.15Q40.7,-41.7 37.15,-44.15Q33.6,-46.6 28.8,-46.6Q24,-46.6 20.45,-44.15Q16.9,-41.7 15,-37.15Q13.1,-32.6 13.1,-26.5Q13.1,-20.4 15,-15.85Q16.9,-11.3 20.45,-8.85Q24,-6.4 28.8,-6.4Z"></path><path transform="translate(360 200)" d="M1.9,22.4Q-1.8,22.4 -5.3,21.3L-5.3,13.6Q-3.3,14.6 0.1,14.6Q4,14.6 6.2,12.05Q8.4,9.5 8.4,4.9L8.4,-53L16.7,-53L16.7,6.4Q16.7,14.1 12.9,18.25Q9.1,22.4 1.9,22.4ZM12.4,-64.1Q9.8,-64.1 8.35,-65.6Q6.9,-67.1 6.9,-69.7Q6.9,-72.3 8.4,-73.85Q9.9,-75.4 12.4,-75.4Q15,-75.4 16.6,-73.85Q18.2,-72.3 18.2,-69.7Q18.2,-67.1 16.6,-65.6Q15,-64.1 12.4,-64.1Z"></path><path transform="translate(385 200)" d="M29.8,1.3Q22,1.3 16.35,-2.05Q10.7,-5.4 7.65,-11.65Q4.6,-17.9 4.6,-26.4Q4.6,-35 7.45,-41.3Q10.3,-47.6 15.75,-51Q21.2,-54.4 28.6,-54.4Q35.5,-54.4 40.6,-51.55Q45.7,-48.7 48.45,-43.4Q51.2,-38.1 51.2,-31Q51.2,-27.5 50.6,-24.2L11.6,-24.2L11.9,-31.7L42.7,-31.7Q42.7,-36.4 41.15,-39.75Q39.6,-43.1 36.45,-44.95Q33.3,-46.8 28.6,-46.8Q23.8,-46.8 20.35,-44.6Q16.9,-42.4 15.05,-37.8Q13.2,-33.2 13.2,-26.2Q13.2,-20.1 15.2,-15.65Q17.2,-11.2 20.95,-8.75Q24.7,-6.3 29.8,-6.3Q33.9,-6.3 37.5,-8.3Q41.1,-10.3 43.7,-14.2L50.2,-9.7Q46.8,-4.4 41.7,-1.55Q36.6,1.3 29.8,1.3Z"></path><path transform="translate(441 200)" d="M29.6,1.4Q22,1.4 16.35,-2.05Q10.7,-5.5 7.65,-11.85Q4.6,-18.2 4.6,-26.6Q4.6,-34.9 7.65,-41.2Q10.7,-47.5 16.35,-50.9Q22,-54.3 29.6,-54.3Q35.2,-54.3 40.55,-51.3Q45.9,-48.3 49.1,-43.3L42.6,-38.7Q40.2,-42.3 36.65,-44.4Q33.1,-46.5 29,-46.5Q24.3,-46.5 20.7,-44.05Q17.1,-41.6 15.1,-37.05Q13.1,-32.5 13.1,-26.6Q13.1,-20.6 15.05,-16Q17,-11.4 20.6,-8.9Q24.2,-6.4 28.9,-6.4Q33,-6.4 36.65,-8.5Q40.3,-10.6 42.6,-14.2L49.1,-9.6Q45.9,-4.6 40.55,-1.6Q35.2,1.4 29.6,1.4Z"></path><path transform="translate(494 200)" d="M25.6,2.1Q18.2,2.1 14.25,-2.1Q10.3,-6.3 10.3,-14.2L10.3,-69.8L18.6,-69.8L18.6,-14.8Q18.6,-10.4 20.9,-8Q23.2,-5.6 27.3,-5.6Q29.7,-5.6 32.7,-6.6L32.7,1Q30,2.1 25.6,2.1ZM2,-45.2L2,-53L33.9,-53L33.9,-45.2L2,-45.2Z"></path><path transform="translate(530 200)" d=""></path><path transform="translate(559 200)" d="M16.5,-0L7.9,-0L7.9,-74L52.8,-74L52.8,-65.8L16.5,-65.8L16.5,-41.2L50.2,-41.2L50.2,-33L16.5,-33L16.5,-0Z"></path><path transform="translate(613 200)" d="M28.8,1.4Q21.5,1.4 16,-2Q10.5,-5.4 7.55,-11.7Q4.6,-18 4.6,-26.5Q4.6,-35 7.55,-41.3Q10.5,-47.6 16,-51Q21.5,-54.4 28.8,-54.4Q36.1,-54.4 41.55,-51Q47,-47.6 50,-41.3Q53,-35 53,-26.5Q53,-18 50,-11.7Q47,-5.4 41.55,-2Q36.1,1.4 28.8,1.4ZM28.8,-6.4Q33.6,-6.4 37.15,-8.85Q40.7,-11.3 42.6,-15.85Q44.5,-20.4 44.5,-26.5Q44.5,-32.6 42.6,-37.15Q40.7,-41.7 37.15,-44.15Q33.6,-46.6 28.8,-46.6Q24,-46.6 20.45,-44.15Q16.9,-41.7 15,-37.15Q13.1,-32.6 13.1,-26.5Q13.1,-20.4 15,-15.85Q16.9,-11.3 20.45,-8.85Q24,-6.4 28.8,-6.4Z"></path><path transform="translate(671 200)" d="M7.2,-0L7.2,-53L15.5,-53L15.5,-42.9L16,-42.9Q19.3,-48.3 24.4,-51.35Q29.5,-54.4 35.7,-54.4L36.4,-54.4L36.4,-45.4L35.5,-45.4Q29.4,-45.4 24.9,-43.4Q20.4,-41.4 17.95,-37.95Q15.5,-34.5 15.5,-30.5L15.5,-0L7.2,-0Z"></path><path transform="translate(709 200)" d=""></path><path transform="translate(738 200)" d="M1.3,-74L10.1,-74L26.2,-15.7L26.8,-15.7L43.4,-74L52.4,-74L69.1,-15.7L69.6,-15.7L85.7,-74L94.5,-74L73.9,-0L65.7,-0L48.3,-60L47.5,-60L30.1,-0L21.9,-0L1.3,-74Z"></path><path transform="translate(829 200)" d="M29.8,1.3Q22,1.3 16.35,-2.05Q10.7,-5.4 7.65,-11.65Q4.6,-17.9 4.6,-26.4Q4.6,-35 7.45,-41.3Q10.3,-47.6 15.75,-51Q21.2,-54.4 28.6,-54.4Q35.5,-54.4 40.6,-51.55Q45.7,-48.7 48.45,-43.4Q51.2,-38.1 51.2,-31Q51.2,-27.5 50.6,-24.2L11.6,-24.2L11.9,-31.7L42.7,-31.7Q42.7,-36.4 41.15,-39.75Q39.6,-43.1 36.45,-44.95Q33.3,-46.8 28.6,-46.8Q23.8,-46.8 20.35,-44.6Q16.9,-42.4 15.05,-37.8Q13.2,-33.2 13.2,-26.2Q13.2,-20.1 15.2,-15.65Q17.2,-11.2 20.95,-8.75Q24.7,-6.3 29.8,-6.3Q33.9,-6.3 37.5,-8.3Q41.1,-10.3 43.7,-14.2L50.2,-9.7Q46.8,-4.4 41.7,-1.55Q36.6,1.3 29.8,1.3Z"></path><path transform="translate(885 200)" d="M7.2,-0L7.2,-74L15.5,-74L15.5,-45.5L16,-45.5Q19,-49.6 23.35,-51.95Q27.7,-54.3 32.7,-54.3Q39.1,-54.3 44.25,-50.85Q49.4,-47.4 52.3,-41.3Q55.2,-35.2 55.2,-27.5Q55.2,-19.2 52.3,-12.65Q49.4,-6.1 44.25,-2.4Q39.1,1.3 32.7,1.3Q27.4,1.3 23.1,-1Q18.8,-3.3 16,-7.6L15.5,-7.6L15.5,-0L7.2,-0ZM15.1,-26.5Q15.1,-20.8 17.05,-16.3Q19,-11.8 22.55,-9.3Q26.1,-6.8 30.5,-6.8Q35.1,-6.8 38.8,-9.3Q42.5,-11.8 44.6,-16.3Q46.7,-20.8 46.7,-26.5Q46.7,-32.2 44.65,-36.7Q42.6,-41.2 39,-43.7Q35.4,-46.2 30.8,-46.2Q26.3,-46.2 22.7,-43.7Q19.1,-41.2 17.1,-36.7Q15.1,-32.2 15.1,-26.5Z"></path></svg>